<svg xmlns="http://www.w3.org/2000/svg" xmlns:xlink="http://www.w3.org/1999/xlink" width="500" zoomAndPan="magnify" viewBox="0 0 375 374.999991" height="500" preserveAspectRatio="xMidYMid meet" version="1.0"><defs><g/><clipPath id="bdcc84966b"><path d="M 138.566406 137.164062 L 204.566406 137.164062 L 204.566406 218.164062 L 138.566406 218.164062 Z M 138.566406 137.164062 " clip-rule="nonzero"/></clipPath></defs><g clip-path="url(#bdcc84966b)"><path fill="#f3ba69" d="M 179.113281 150.492188 L 179.050781 150.492188 L 178.921875 150.496094 L 178.847656 150.496094 L 178.730469 150.5 L 178.65625 150.5 L 178.542969 150.503906 L 178.464844 150.503906 L 178.351562 150.507812 L 178.277344 150.511719 L 178.152344 150.515625 L 178.085938 150.519531 L 177.933594 150.527344 L 177.898438 150.527344 L 177.714844 150.539062 L 177.65625 150.542969 L 177.527344 150.550781 L 177.457031 150.554688 C 177.457031 150.554688 177.371094 150.558594 177.339844 150.5625 C 177.3125 150.5625 177.289062 150.566406 177.261719 150.566406 C 177.234375 150.570312 177.183594 150.574219 177.152344 150.574219 C 177.125 150.578125 177.101562 150.578125 177.074219 150.582031 C 177.042969 150.585938 176.996094 150.589844 176.964844 150.589844 C 176.9375 150.59375 176.914062 150.59375 176.886719 150.597656 C 176.855469 150.601562 176.804688 150.605469 176.773438 150.605469 C 176.75 150.609375 176.726562 150.613281 176.703125 150.613281 C 176.667969 150.617188 176.597656 150.625 176.566406 150.628906 C 176.550781 150.628906 176.535156 150.628906 176.515625 150.632812 C 176.480469 150.636719 176.371094 150.648438 176.335938 150.652344 C 176.316406 150.652344 176.300781 150.65625 176.285156 150.65625 C 176.253906 150.660156 176.183594 150.667969 176.148438 150.671875 C 176.125 150.675781 176.105469 150.675781 176.082031 150.679688 C 176.050781 150.683594 175.996094 150.691406 175.964844 150.695312 C 175.941406 150.695312 175.914062 150.699219 175.890625 150.703125 C 175.859375 150.707031 175.8125 150.710938 175.78125 150.714844 C 175.753906 150.71875 175.730469 150.722656 175.703125 150.726562 C 175.671875 150.730469 175.628906 150.738281 175.597656 150.742188 C 175.570312 150.746094 175.546875 150.746094 175.519531 150.75 C 175.488281 150.757812 175.441406 150.761719 175.410156 150.765625 C 175.386719 150.769531 175.363281 150.773438 175.335938 150.777344 C 175.304688 150.78125 175.246094 150.789062 175.21875 150.796875 C 175.195312 150.796875 175.175781 150.800781 175.15625 150.804688 C 175.113281 150.808594 175.011719 150.828125 174.976562 150.832031 C 174.960938 150.835938 174.949219 150.835938 174.9375 150.839844 C 174.90625 150.84375 174.828125 150.855469 174.792969 150.859375 C 174.769531 150.863281 174.746094 150.867188 174.722656 150.871094 C 174.695312 150.878906 174.644531 150.886719 174.613281 150.890625 C 174.585938 150.898438 174.5625 150.902344 174.535156 150.90625 C 174.507812 150.910156 174.464844 150.917969 174.433594 150.921875 C 174.40625 150.929688 174.378906 150.933594 174.351562 150.9375 C 174.324219 150.945312 174.28125 150.953125 174.25 150.957031 C 174.226562 150.960938 174.199219 150.964844 174.171875 150.972656 C 174.140625 150.976562 174.097656 150.984375 174.070312 150.992188 C 174.042969 150.996094 174.019531 151 173.992188 151.007812 C 173.960938 151.011719 173.914062 151.023438 173.882812 151.027344 C 173.859375 151.03125 173.835938 151.039062 173.8125 151.042969 C 173.777344 151.050781 173.703125 151.066406 173.675781 151.070312 C 173.660156 151.074219 173.644531 151.078125 173.636719 151.078125 C 173.628906 151.082031 173.621094 151.082031 173.617188 151.082031 C 173.585938 151.089844 173.496094 151.109375 173.460938 151.117188 C 173.4375 151.121094 173.414062 151.125 173.390625 151.132812 C 173.359375 151.136719 173.3125 151.148438 173.28125 151.15625 C 173.257812 151.160156 173.230469 151.167969 173.203125 151.171875 C 173.175781 151.179688 173.136719 151.1875 173.105469 151.195312 C 173.078125 151.203125 173.050781 151.207031 173.027344 151.214844 C 172.996094 151.222656 172.957031 151.230469 172.929688 151.238281 C 172.902344 151.246094 172.875 151.25 172.847656 151.257812 C 172.816406 151.265625 172.78125 151.273438 172.75 151.28125 C 172.722656 151.289062 172.699219 151.292969 172.671875 151.300781 C 172.640625 151.308594 172.601562 151.316406 172.570312 151.324219 C 172.546875 151.332031 172.519531 151.339844 172.496094 151.34375 C 172.464844 151.351562 172.410156 151.367188 172.382812 151.375 C 172.359375 151.378906 172.339844 151.382812 172.320312 151.390625 C 172.28125 151.402344 172.191406 151.425781 172.148438 151.433594 C 172.128906 151.441406 172.105469 151.449219 172.082031 151.453125 C 172.054688 151.460938 172.007812 151.472656 171.976562 151.484375 C 171.949219 151.488281 171.925781 151.496094 171.898438 151.503906 C 171.871094 151.511719 171.832031 151.523438 171.800781 151.53125 C 171.777344 151.539062 171.75 151.546875 171.722656 151.554688 C 171.691406 151.5625 171.65625 151.574219 171.628906 151.582031 C 171.601562 151.589844 171.574219 151.597656 171.546875 151.605469 C 171.519531 151.613281 171.484375 151.625 171.453125 151.632812 C 171.429688 151.640625 171.402344 151.648438 171.375 151.65625 C 171.347656 151.664062 171.308594 151.675781 171.277344 151.6875 C 171.253906 151.695312 171.230469 151.703125 171.203125 151.710938 C 171.171875 151.71875 171.125 151.734375 171.097656 151.742188 C 171.074219 151.75 171.054688 151.757812 171.03125 151.761719 C 170.992188 151.773438 170.902344 151.804688 170.863281 151.816406 C 170.847656 151.820312 170.828125 151.828125 170.808594 151.835938 C 170.777344 151.84375 170.726562 151.863281 170.695312 151.871094 C 170.671875 151.878906 170.644531 151.886719 170.621094 151.894531 C 170.59375 151.90625 170.554688 151.917969 170.523438 151.929688 C 170.5 151.9375 170.472656 151.945312 170.449219 151.953125 C 170.417969 151.964844 170.382812 151.976562 170.351562 151.988281 C 170.328125 151.996094 170.277344 152.015625 170.277344 152.015625 L 170.183594 152.046875 L 170.109375 152.074219 L 170.007812 152.109375 L 169.941406 152.132812 L 169.828125 152.175781 L 169.773438 152.195312 L 169.605469 152.257812 L 169.589844 152.265625 L 169.4375 152.324219 L 169.382812 152.34375 L 169.269531 152.386719 L 169.207031 152.410156 L 169.101562 152.453125 L 169.039062 152.480469 L 168.933594 152.523438 L 168.875 152.546875 L 168.761719 152.59375 L 168.707031 152.617188 L 168.578125 152.671875 L 168.542969 152.683594 L 168.378906 152.757812 L 168.207031 152.832031 L 168.195312 152.835938 L 168.042969 152.90625 L 168.011719 152.921875 L 167.875 152.980469 L 167.839844 153 L 167.707031 153.058594 L 167.675781 153.074219 L 167.535156 153.140625 L 167.511719 153.152344 L 167.351562 153.230469 C 158.265625 157.644531 152.003906 166.925781 152.003906 177.65625 C 152.003906 188.394531 158.277344 197.683594 167.375 202.09375 L 167.539062 202.171875 L 167.550781 202.175781 L 167.703125 202.25 L 167.722656 202.257812 L 167.875 202.328125 L 167.886719 202.335938 L 168.054688 202.410156 C 168.113281 202.4375 168.167969 202.460938 168.226562 202.488281 L 168.394531 202.558594 L 168.425781 202.574219 L 168.554688 202.628906 L 168.71875 202.699219 L 168.78125 202.726562 L 168.886719 202.769531 L 168.949219 202.792969 L 169.050781 202.835938 L 169.117188 202.863281 L 169.21875 202.902344 L 169.285156 202.929688 L 169.40625 202.976562 L 169.453125 202.996094 L 169.613281 203.054688 L 169.683594 203.082031 L 169.777344 203.117188 L 169.859375 203.148438 L 170.03125 203.210938 L 170.113281 203.238281 L 170.199219 203.269531 L 170.28125 203.296875 L 170.367188 203.328125 L 170.449219 203.355469 L 170.539062 203.386719 L 170.617188 203.414062 L 170.707031 203.445312 L 170.867188 203.496094 L 170.960938 203.523438 L 171.035156 203.550781 L 171.128906 203.578125 L 171.207031 203.601562 L 171.300781 203.632812 L 171.378906 203.65625 L 171.472656 203.683594 L 171.550781 203.707031 L 171.644531 203.734375 L 171.722656 203.757812 L 171.816406 203.78125 L 171.894531 203.804688 L 171.988281 203.832031 L 172.0625 203.851562 L 172.15625 203.878906 L 172.246094 203.902344 L 172.417969 203.945312 L 172.5 203.96875 L 172.589844 203.992188 L 172.671875 204.011719 L 172.765625 204.035156 L 172.847656 204.054688 L 172.941406 204.074219 L 173.027344 204.097656 L 173.117188 204.117188 L 173.203125 204.136719 L 173.292969 204.15625 L 173.386719 204.179688 L 173.46875 204.195312 L 173.636719 204.234375 L 173.71875 204.25 L 173.816406 204.269531 L 173.902344 204.285156 L 173.996094 204.304688 L 174.082031 204.324219 L 174.175781 204.339844 L 174.261719 204.355469 L 174.355469 204.375 L 174.441406 204.386719 L 174.539062 204.40625 L 174.621094 204.421875 L 174.726562 204.4375 L 174.800781 204.449219 L 174.976562 204.480469 L 175.03125 204.488281 L 175.15625 204.507812 L 175.230469 204.519531 L 175.339844 204.535156 L 175.417969 204.546875 L 175.523438 204.558594 L 175.601562 204.570312 L 175.707031 204.585938 L 175.789062 204.59375 L 175.894531 204.609375 L 175.96875 204.617188 L 176.085938 204.632812 L 176.152344 204.640625 L 176.300781 204.65625 L 176.339844 204.660156 L 176.519531 204.679688 L 176.582031 204.683594 L 176.707031 204.699219 L 176.777344 204.703125 L 176.890625 204.714844 L 176.96875 204.722656 L 177.078125 204.730469 L 177.15625 204.734375 L 177.265625 204.742188 L 177.339844 204.75 L 177.457031 204.757812 L 177.527344 204.761719 L 177.664062 204.769531 L 177.714844 204.773438 L 177.902344 204.785156 L 177.941406 204.785156 L 178.089844 204.792969 L 178.15625 204.796875 L 178.277344 204.800781 L 178.351562 204.800781 L 178.464844 204.804688 L 178.542969 204.808594 L 178.65625 204.8125 L 178.734375 204.8125 L 178.847656 204.816406 L 179.050781 204.816406 L 179.113281 204.820312 L 179.300781 204.820312 C 179.300781 204.820312 179.476562 204.820312 179.476562 204.820312 L 179.523438 204.816406 L 179.699219 204.816406 L 179.875 204.8125 L 179.917969 204.8125 L 180.070312 204.808594 L 180.097656 204.808594 L 180.269531 204.800781 L 180.3125 204.800781 L 180.460938 204.792969 L 180.492188 204.792969 L 180.664062 204.785156 L 180.703125 204.785156 L 180.851562 204.777344 L 180.886719 204.773438 L 181.058594 204.761719 L 181.09375 204.761719 L 181.238281 204.75 L 181.28125 204.75 L 181.453125 204.734375 L 181.480469 204.734375 L 181.628906 204.722656 L 181.84375 204.703125 L 181.859375 204.699219 L 182.019531 204.683594 L 182.058594 204.683594 L 182.234375 204.664062 L 182.40625 204.644531 L 182.445312 204.640625 L 182.617188 204.621094 L 182.796875 204.597656 L 182.828125 204.59375 L 183.179688 204.546875 L 183.207031 204.542969 L 183.375 204.519531 L 183.386719 204.515625 L 183.566406 204.488281 L 183.585938 204.484375 L 183.753906 204.457031 L 183.765625 204.457031 L 183.949219 204.425781 L 183.957031 204.425781 L 184.132812 204.394531 L 184.144531 204.390625 L 184.328125 204.359375 L 184.511719 204.324219 L 184.519531 204.324219 L 184.703125 204.285156 L 184.886719 204.25 L 184.894531 204.246094 L 185.078125 204.207031 L 185.265625 204.167969 C 187.308594 203.714844 189.265625 203.03125 191.109375 202.148438 C 192.328125 201.566406 193.496094 200.894531 194.609375 200.144531 C 194.738281 200.058594 194.886719 200.011719 195.042969 200.011719 C 196.179688 200.011719 201.074219 200.011719 203.730469 200.011719 C 204.039062 200.011719 204.320312 200.191406 204.441406 200.472656 C 204.5625 200.753906 204.507812 201.082031 204.296875 201.304688 C 203.203125 202.453125 202.035156 203.523438 200.792969 204.515625 C 200.792969 204.515625 201.636719 207.039062 202.238281 208.835938 C 202.59375 209.894531 202.183594 211.0625 201.242188 211.675781 C 200.105469 212.398438 198.9375 213.070312 197.738281 213.683594 C 196.734375 214.1875 195.519531 213.957031 194.773438 213.121094 C 193.507812 211.707031 191.730469 209.71875 191.730469 209.71875 C 191.121094 209.957031 190.507812 210.175781 189.886719 210.375 C 189.746094 210.453125 189.601562 210.511719 189.445312 210.5625 C 187.839844 211.046875 186.195312 211.421875 184.53125 211.675781 C 184.53125 211.675781 183.996094 214.28125 183.609375 216.132812 C 183.382812 217.226562 182.441406 218.035156 181.320312 218.09375 C 180.625 218.128906 179.929688 218.144531 179.234375 218.144531 C 178.539062 218.144531 177.84375 218.128906 177.148438 218.09375 C 176.027344 218.035156 175.085938 217.226562 174.859375 216.132812 C 174.476562 214.28125 173.9375 211.675781 173.9375 211.675781 C 172.273438 211.421875 170.632812 211.046875 169.023438 210.5625 C 168.867188 210.511719 168.722656 210.453125 168.585938 210.375 C 167.960938 210.175781 167.347656 209.957031 166.738281 209.71875 C 166.738281 209.71875 164.960938 211.707031 163.695312 213.121094 C 162.953125 213.957031 161.734375 214.1875 160.730469 213.683594 C 159.53125 213.070312 158.363281 212.398438 157.230469 211.675781 C 156.285156 211.0625 155.878906 209.894531 156.234375 208.835938 C 156.832031 207.039062 157.675781 204.515625 157.675781 204.515625 C 155.695312 202.933594 153.894531 201.144531 152.308594 199.171875 C 152.308594 199.171875 149.773438 200.011719 147.964844 200.605469 C 146.902344 200.960938 145.730469 200.554688 145.117188 199.617188 C 144.386719 198.488281 143.710938 197.328125 143.09375 196.136719 C 142.582031 195.136719 142.816406 193.921875 143.65625 193.179688 C 145.078125 191.921875 147.078125 190.15625 147.078125 190.15625 C 146.15625 187.804688 145.496094 185.355469 145.113281 182.863281 C 145.113281 182.863281 142.496094 182.324219 140.632812 181.941406 C 139.53125 181.71875 138.722656 180.78125 138.660156 179.667969 C 138.59375 178.328125 138.59375 176.984375 138.65625 175.644531 C 138.71875 174.527344 139.53125 173.589844 140.632812 173.367188 C 142.496094 172.984375 145.113281 172.449219 145.113281 172.449219 C 145.496094 169.953125 146.15625 167.507812 147.078125 165.15625 C 147.078125 165.15625 145.078125 163.390625 143.660156 162.128906 C 142.820312 161.386719 142.585938 160.175781 143.09375 159.179688 C 143.710938 157.984375 144.386719 156.820312 145.113281 155.691406 C 145.726562 154.753906 146.898438 154.347656 147.96875 154.703125 C 149.773438 155.296875 152.308594 156.136719 152.308594 156.136719 C 153.894531 154.167969 155.695312 152.375 157.675781 150.796875 C 157.675781 150.796875 156.832031 148.273438 156.234375 146.476562 C 155.882812 145.414062 156.289062 144.25 157.230469 143.640625 C 158.363281 142.914062 159.53125 142.242188 160.730469 141.625 C 161.734375 141.121094 162.953125 141.351562 163.699219 142.1875 C 164.308594 142.867188 165.035156 143.683594 165.628906 144.34375 C 166.289062 145.082031 167.332031 145.355469 168.273438 145.035156 C 168.382812 145 168.496094 144.964844 168.605469 144.925781 C 168.738281 144.859375 168.878906 144.800781 169.023438 144.753906 C 170.269531 144.375 171.535156 144.0625 172.816406 143.824219 C 173.371094 143.628906 173.828125 143.246094 174.121094 142.746094 L 174.859375 139.175781 C 175.082031 138.082031 176.023438 137.273438 177.148438 137.210938 C 177.84375 137.179688 178.539062 137.164062 179.234375 137.167969 C 179.929688 137.164062 180.628906 137.179688 181.320312 137.210938 C 182.445312 137.273438 183.386719 138.082031 183.613281 139.175781 L 184.347656 142.746094 C 184.640625 143.246094 185.101562 143.628906 185.652344 143.824219 C 186.933594 144.0625 188.199219 144.375 189.445312 144.753906 C 189.59375 144.800781 189.730469 144.859375 189.863281 144.925781 C 189.972656 144.964844 190.085938 145 190.195312 145.035156 C 191.136719 145.355469 192.179688 145.082031 192.84375 144.34375 C 193.433594 143.683594 194.160156 142.867188 194.769531 142.1875 C 195.515625 141.351562 196.738281 141.121094 197.738281 141.625 C 198.9375 142.242188 200.105469 142.914062 201.238281 143.640625 C 202.179688 144.25 202.589844 145.414062 202.234375 146.476562 C 201.636719 148.273438 200.792969 150.796875 200.792969 150.796875 C 202.035156 151.785156 203.203125 152.859375 204.296875 154.003906 C 204.503906 154.230469 204.5625 154.554688 204.441406 154.835938 C 204.316406 155.117188 204.039062 155.300781 203.730469 155.300781 C 201.074219 155.300781 196.179688 155.300781 195.042969 155.300781 C 194.886719 155.300781 194.738281 155.253906 194.609375 155.167969 C 193.503906 154.421875 192.34375 153.753906 191.132812 153.171875 C 191.019531 153.121094 190.910156 153.066406 190.796875 153.015625 L 190.792969 153.011719 L 190.625 152.9375 L 190.464844 152.863281 L 190.449219 152.855469 L 190.285156 152.785156 L 190.128906 152.714844 L 190.101562 152.707031 L 189.941406 152.636719 L 189.785156 152.570312 L 189.753906 152.558594 L 189.597656 152.492188 L 189.441406 152.429688 L 189.402344 152.417969 L 189.253906 152.359375 L 189.246094 152.355469 L 189.09375 152.292969 L 189.050781 152.277344 L 188.917969 152.226562 L 188.894531 152.21875 L 188.742188 152.164062 L 188.695312 152.148438 L 188.570312 152.101562 L 188.535156 152.089844 L 188.386719 152.035156 L 188.339844 152.019531 L 188.21875 151.976562 L 188.179688 151.964844 L 188.027344 151.914062 L 187.984375 151.898438 L 187.863281 151.859375 L 187.820312 151.84375 L 187.667969 151.792969 L 187.625 151.78125 L 187.507812 151.742188 L 187.457031 151.726562 L 187.308594 151.679688 L 187.265625 151.667969 L 187.144531 151.632812 L 186.941406 151.570312 L 186.902344 151.5625 L 186.78125 151.527344 L 186.726562 151.511719 L 186.574219 151.46875 L 186.542969 151.460938 L 186.414062 151.425781 L 186.359375 151.410156 L 186.21875 151.375 L 186.199219 151.367188 L 186.1875 151.367188 L 186.042969 151.328125 L 185.992188 151.316406 L 185.859375 151.28125 L 185.828125 151.273438 L 185.671875 151.238281 L 185.621094 151.226562 L 185.492188 151.195312 L 185.453125 151.1875 L 185.296875 151.152344 L 185.246094 151.140625 L 185.121094 151.113281 L 185.078125 151.105469 L 184.921875 151.070312 L 184.875 151.058594 L 184.746094 151.035156 L 184.703125 151.023438 L 184.542969 150.992188 L 184.371094 150.960938 L 184.324219 150.953125 L 184.164062 150.921875 L 184.125 150.914062 L 183.992188 150.894531 L 183.945312 150.882812 L 183.78125 150.859375 L 183.746094 150.851562 L 183.609375 150.828125 L 183.5625 150.820312 L 183.371094 150.792969 L 183.226562 150.773438 L 183.179688 150.765625 L 183.011719 150.742188 L 183 150.742188 L 182.84375 150.71875 L 182.796875 150.714844 L 182.636719 150.695312 L 182.625 150.691406 L 182.453125 150.671875 L 182.410156 150.667969 L 182.257812 150.652344 L 182.234375 150.648438 L 182.066406 150.628906 L 182.023438 150.625 L 181.875 150.613281 L 181.84375 150.609375 L 181.675781 150.59375 L 181.632812 150.589844 L 181.488281 150.578125 L 181.453125 150.574219 L 181.285156 150.5625 L 181.242188 150.558594 L 181.101562 150.550781 L 181.0625 150.546875 L 180.890625 150.539062 L 180.855469 150.535156 L 180.707031 150.527344 L 180.667969 150.527344 L 180.496094 150.519531 L 180.464844 150.515625 L 180.316406 150.511719 L 180.273438 150.507812 L 180.097656 150.503906 L 180.074219 150.503906 L 179.921875 150.5 L 179.875 150.5 L 179.699219 150.496094 L 179.683594 150.496094 L 179.523438 150.492188 Z M 179.113281 150.492188 " fill-opacity="1" fill-rule="evenodd"/></g><g fill="#f3ba69" fill-opacity="1"><g transform="translate(13.710857, 187.579207)"><g><path d="M 22.863281 -21.773438 L 1.089844 -21.773438 L 1.089844 -17.417969 L 9.796875 -17.417969 L 9.796875 0 L 14.152344 0 L 14.152344 -17.417969 L 22.863281 -17.417969 Z M 22.863281 -21.773438 "/></g></g></g><g fill="#f3ba69" fill-opacity="1"><g transform="translate(37.656542, 187.579207)"><g><path d="M 22.863281 -21.773438 L 5.445312 -21.773438 C 3.046875 -21.773438 1.089844 -19.8125 1.089844 -17.417969 L 1.089844 -4.355469 C 1.089844 -1.960938 3.046875 0 5.445312 0 L 22.863281 0 L 22.863281 -4.355469 L 5.445312 -4.355469 L 5.445312 -8.710938 L 22.863281 -8.710938 L 22.863281 -13.0625 L 5.445312 -13.0625 L 5.445312 -17.417969 L 22.863281 -17.417969 Z M 22.863281 -21.773438 "/></g></g></g><g fill="#f3ba69" fill-opacity="1"><g transform="translate(61.602227, 187.579207)"><g><path d="M 22.863281 0 L 22.863281 -4.355469 L 5.445312 -4.355469 L 5.445312 -17.417969 L 22.863281 -17.417969 L 22.863281 -21.773438 L 5.445312 -21.773438 C 3.046875 -21.773438 1.089844 -19.8125 1.089844 -17.417969 L 1.089844 -4.355469 C 1.089844 -1.960938 3.046875 0 5.445312 0 Z M 22.863281 0 "/></g></g></g><g fill="#f3ba69" fill-opacity="1"><g transform="translate(85.547912, 187.579207)"><g><path d="M 18.507812 -13.0625 L 5.445312 -13.0625 L 5.445312 -21.773438 L 1.089844 -21.773438 L 1.089844 0 L 5.445312 0 L 5.445312 -8.710938 L 18.507812 -8.710938 L 18.507812 0 L 22.863281 0 L 22.863281 -21.773438 L 18.507812 -21.773438 Z M 18.507812 -13.0625 "/></g></g></g><g fill="#f3ba69" fill-opacity="1"><g transform="translate(109.493597, 187.579207)"><g><path d="M 5.445312 0 L 5.445312 -14.34375 L 19.132812 -0.652344 C 19.542969 -0.246094 20.085938 0 20.683594 0 C 21.882812 0 22.863281 -0.980469 22.863281 -2.175781 L 22.863281 -21.773438 L 18.507812 -21.773438 L 18.507812 -7.429688 L 4.816406 -21.121094 C 4.410156 -21.527344 3.863281 -21.773438 3.265625 -21.773438 C 2.070312 -21.773438 1.089844 -20.792969 1.089844 -19.597656 L 1.089844 0 Z M 5.445312 0 "/></g></g></g><g fill="#f3ba69" fill-opacity="1"><g transform="translate(204.517887, 187.579207)"><g><path d="M 11.976562 0 C 12.929688 0 13.90625 -0.355469 14.699219 -1.035156 L 22.046875 -7.347656 C 22.5625 -7.8125 22.835938 -8.382812 22.835938 -9.089844 L 22.863281 -21.773438 L 18.507812 -21.773438 L 18.507812 -10.070312 L 11.976562 -4.4375 L 5.445312 -10.070312 L 5.445312 -21.773438 L 1.089844 -21.773438 L 1.089844 -9.089844 C 1.089844 -8.410156 1.386719 -7.8125 1.90625 -7.347656 L 9.253906 -1.035156 C 10.070312 -0.355469 11.023438 0 11.976562 0 Z M 11.976562 0 "/></g></g></g><g fill="#f3ba69" fill-opacity="1"><g transform="translate(228.463572, 187.579207)"><g><path d="M 5.445312 -21.773438 C 3.046875 -21.773438 1.089844 -19.8125 1.089844 -17.417969 L 1.089844 0 L 5.445312 0 L 5.445312 -8.710938 L 18.507812 -8.710938 L 18.507812 0 L 22.863281 0 L 22.863281 -17.417969 C 22.863281 -19.8125 20.902344 -21.773438 18.507812 -21.773438 Z M 5.445312 -17.417969 L 18.507812 -17.417969 L 18.507812 -13.0625 L 5.445312 -13.0625 Z M 5.445312 -17.417969 "/></g></g></g><g fill="#f3ba69" fill-opacity="1"><g transform="translate(252.409257, 187.579207)"><g><path d="M 22.863281 -21.773438 L 1.089844 -21.773438 L 1.089844 -17.417969 L 9.796875 -17.417969 L 9.796875 0 L 14.152344 0 L 14.152344 -17.417969 L 22.863281 -17.417969 Z M 22.863281 -21.773438 "/></g></g></g><g fill="#f3ba69" fill-opacity="1"><g transform="translate(276.354942, 187.579207)"><g><path d="M 22.863281 0 L 22.863281 -4.355469 L 14.152344 -4.355469 L 14.152344 -17.417969 L 22.863281 -17.417969 L 22.863281 -21.773438 L 1.089844 -21.773438 L 1.089844 -17.417969 L 9.796875 -17.417969 L 9.796875 -4.355469 L 1.089844 -4.355469 L 1.089844 0 Z M 22.863281 0 "/></g></g></g><g fill="#f3ba69" fill-opacity="1"><g transform="translate(300.300627, 187.579207)"><g><path d="M 18.507812 0 C 20.929688 0 22.863281 -1.988281 22.863281 -4.355469 L 22.863281 -17.417969 C 22.863281 -19.8125 20.902344 -21.773438 18.507812 -21.773438 L 5.445312 -21.773438 C 3.046875 -21.773438 1.089844 -19.8125 1.089844 -17.417969 L 1.089844 -4.355469 C 1.089844 -1.960938 3.046875 0 5.445312 0 Z M 5.445312 -17.417969 L 18.507812 -17.417969 L 18.507812 -4.355469 L 5.445312 -4.355469 Z M 5.445312 -17.417969 "/></g></g></g><g fill="#f3ba69" fill-opacity="1"><g transform="translate(324.246312, 187.579207)"><g><path d="M 5.445312 0 L 5.445312 -14.34375 L 19.132812 -0.652344 C 19.542969 -0.246094 20.085938 0 20.683594 0 C 21.882812 0 22.863281 -0.980469 22.863281 -2.175781 L 22.863281 -21.773438 L 18.507812 -21.773438 L 18.507812 -7.429688 L 4.816406 -21.121094 C 4.410156 -21.527344 3.863281 -21.773438 3.265625 -21.773438 C 2.070312 -21.773438 1.089844 -20.792969 1.089844 -19.597656 L 1.089844 0 Z M 5.445312 0 "/></g></g></g><g fill="#f3ba69" fill-opacity="1"><g transform="translate(163.505619, 189.654201)"><g><path d="M 22.589844 0 C 25.542969 0 27.902344 -2.425781 27.902344 -5.316406 L 27.902344 -21.257812 C 27.902344 -24.183594 25.511719 -26.574219 22.589844 -26.574219 L 6.644531 -26.574219 C 3.71875 -26.574219 1.328125 -24.183594 1.328125 -21.257812 L 1.328125 -5.316406 C 1.328125 -2.390625 3.71875 0 6.644531 0 Z M 6.644531 -21.257812 L 22.589844 -21.257812 L 22.589844 -5.316406 L 6.644531 -5.316406 Z M 6.644531 -21.257812 "/></g></g></g><g fill="#000000" fill-opacity="1"><g transform="translate(56.722332, 236.640659)"><g><path d="M 6.320312 0 L 9.136719 -9.136719 L 11.941406 0 L 14.109375 0 L 18.136719 -12.199219 L 15.769531 -12.199219 L 13.214844 -4.0625 L 12.964844 -2.996094 L 12.9375 -2.996094 L 12.730469 -4 L 10.308594 -12.191406 L 7.953125 -12.191406 L 5.523438 -3.980469 L 5.34375 -2.996094 L 5.308594 -2.996094 L 5.074219 -3.953125 L 2.492188 -12.199219 L 0.132812 -12.199219 L 4.160156 0 Z M 6.320312 0 "/></g></g></g><g fill="#000000" fill-opacity="1"><g transform="translate(77.160996, 236.640659)"><g><path d="M 10.039062 -4.769531 C 10.039062 -7.304688 8.175781 -9.492188 5.398438 -9.492188 C 2.625 -9.492188 0.617188 -7.296875 0.617188 -4.609375 C 0.617188 -1.917969 2.625 0.277344 5.398438 0.277344 C 7.691406 0.277344 9.332031 -1.238281 9.796875 -2.894531 L 7.433594 -2.894531 C 7.117188 -2.117188 6.445312 -1.660156 5.351562 -1.660156 C 4.078125 -1.660156 3.019531 -2.527344 2.796875 -4.035156 L 9.996094 -4.035156 C 10.03125 -4.375 10.039062 -4.535156 10.039062 -4.769531 Z M 2.886719 -5.710938 C 3.253906 -7.011719 4.292969 -7.601562 5.386719 -7.601562 C 6.660156 -7.601562 7.738281 -6.742188 7.828125 -5.710938 Z M 2.886719 -5.710938 "/></g></g></g><g fill="#000000" fill-opacity="1"><g transform="translate(89.875515, 236.640659)"><g/></g></g><g fill="#000000" fill-opacity="1"><g transform="translate(96.532586, 236.640659)"><g><path d="M 5.378906 0.277344 C 7.746094 0.277344 9.484375 -1.238281 9.960938 -3.371094 L 7.753906 -3.371094 C 7.351562 -2.222656 6.4375 -1.730469 5.386719 -1.730469 C 4.0625 -1.730469 2.769531 -2.789062 2.769531 -4.609375 C 2.769531 -6.417969 4.050781 -7.476562 5.386719 -7.476562 C 6.4375 -7.476562 7.34375 -6.984375 7.753906 -5.960938 L 9.96875 -5.960938 C 9.449219 -7.988281 7.753906 -9.492188 5.378906 -9.492188 C 2.625 -9.492188 0.617188 -7.289062 0.617188 -4.609375 C 0.617188 -1.917969 2.625 0.277344 5.378906 0.277344 Z M 5.378906 0.277344 "/></g></g></g><g fill="#000000" fill-opacity="1"><g transform="translate(109.157499, 236.640659)"><g><path d="M 3.441406 0 L 3.441406 -4.285156 C 3.441406 -6.25 4.457031 -7.351562 5.945312 -7.351562 L 6.8125 -7.351562 L 6.8125 -9.214844 L 5.828125 -9.214844 C 4.625 -9.214844 3.78125 -8.5625 3.351562 -7.546875 L 3.351562 -9.214844 L 1.273438 -9.214844 L 1.273438 0 Z M 3.441406 0 "/></g></g></g><g fill="#000000" fill-opacity="1"><g transform="translate(118.431103, 236.640659)"><g><path d="M 10.039062 -4.769531 C 10.039062 -7.304688 8.175781 -9.492188 5.398438 -9.492188 C 2.625 -9.492188 0.617188 -7.296875 0.617188 -4.609375 C 0.617188 -1.917969 2.625 0.277344 5.398438 0.277344 C 7.691406 0.277344 9.332031 -1.238281 9.796875 -2.894531 L 7.433594 -2.894531 C 7.117188 -2.117188 6.445312 -1.660156 5.351562 -1.660156 C 4.078125 -1.660156 3.019531 -2.527344 2.796875 -4.035156 L 9.996094 -4.035156 C 10.03125 -4.375 10.039062 -4.535156 10.039062 -4.769531 Z M 2.886719 -5.710938 C 3.253906 -7.011719 4.292969 -7.601562 5.386719 -7.601562 C 6.660156 -7.601562 7.738281 -6.742188 7.828125 -5.710938 Z M 2.886719 -5.710938 "/></g></g></g><g fill="#000000" fill-opacity="1"><g transform="translate(131.145626, 236.640659)"><g><path d="M 4.957031 0.277344 C 6.453125 0.277344 7.675781 -0.402344 8.273438 -1.550781 L 8.273438 0 L 10.335938 0 L 10.335938 -9.214844 L 8.273438 -9.214844 L 8.273438 -7.65625 C 7.683594 -8.804688 6.453125 -9.492188 4.949219 -9.492188 C 2.484375 -9.492188 0.617188 -7.296875 0.617188 -4.609375 C 0.617188 -1.902344 2.464844 0.277344 4.957031 0.277344 Z M 5.476562 -1.730469 C 4.015625 -1.730469 2.769531 -2.816406 2.769531 -4.609375 C 2.769531 -6.339844 3.988281 -7.484375 5.476562 -7.484375 C 6.984375 -7.484375 8.183594 -6.210938 8.183594 -4.609375 C 8.183594 -2.976562 6.992188 -1.730469 5.476562 -1.730469 Z M 5.476562 -1.730469 "/></g></g></g><g fill="#000000" fill-opacity="1"><g transform="translate(144.935436, 236.640659)"><g><path d="M 6.9375 0 L 6.9375 -1.800781 L 5.511719 -1.800781 C 4.824219 -1.800781 4.175781 -2.117188 4.175781 -3.40625 L 4.175781 -7.351562 L 6.9375 -7.351562 L 6.9375 -9.214844 L 4.175781 -9.214844 L 4.175781 -11.933594 L 2.007812 -11.914062 L 2.007812 -9.214844 L 0.0976562 -9.214844 L 0.0976562 -7.351562 L 2.007812 -7.351562 L 2.007812 -3.503906 C 2.007812 -0.464844 3.675781 0 5.066406 0 Z M 6.9375 0 "/></g></g></g><g fill="#000000" fill-opacity="1"><g transform="translate(154.540587, 236.640659)"><g><path d="M 10.039062 -4.769531 C 10.039062 -7.304688 8.175781 -9.492188 5.398438 -9.492188 C 2.625 -9.492188 0.617188 -7.296875 0.617188 -4.609375 C 0.617188 -1.917969 2.625 0.277344 5.398438 0.277344 C 7.691406 0.277344 9.332031 -1.238281 9.796875 -2.894531 L 7.433594 -2.894531 C 7.117188 -2.117188 6.445312 -1.660156 5.351562 -1.660156 C 4.078125 -1.660156 3.019531 -2.527344 2.796875 -4.035156 L 9.996094 -4.035156 C 10.03125 -4.375 10.039062 -4.535156 10.039062 -4.769531 Z M 2.886719 -5.710938 C 3.253906 -7.011719 4.292969 -7.601562 5.386719 -7.601562 C 6.660156 -7.601562 7.738281 -6.742188 7.828125 -5.710938 Z M 2.886719 -5.710938 "/></g></g></g><g fill="#000000" fill-opacity="1"><g transform="translate(167.25511, 236.640659)"><g/></g></g><g fill="#000000" fill-opacity="1"><g transform="translate(173.912183, 236.640659)"><g><path d="M 5.460938 0.277344 C 8.300781 0.277344 10.335938 -1.890625 10.335938 -4.609375 C 10.335938 -7.304688 8.300781 -9.492188 5.46875 -9.492188 C 2.644531 -9.492188 0.617188 -7.296875 0.617188 -4.609375 C 0.617188 -1.902344 2.652344 0.277344 5.460938 0.277344 Z M 5.476562 -1.738281 C 3.925781 -1.738281 2.769531 -2.941406 2.769531 -4.609375 C 2.769531 -6.265625 3.925781 -7.484375 5.476562 -7.484375 C 7.027344 -7.484375 8.183594 -6.265625 8.183594 -4.609375 C 8.183594 -2.941406 7.027344 -1.738281 5.476562 -1.738281 Z M 5.476562 -1.738281 "/></g></g></g><g fill="#000000" fill-opacity="1"><g transform="translate(187.047859, 236.640659)"><g><path d="M 3.441406 3.148438 L 3.441406 -0.421875 L 3.398438 -1.488281 C 4.007812 -0.421875 5.183594 0.277344 6.527344 0.277344 C 9.097656 0.277344 10.992188 -1.902344 10.992188 -4.609375 C 10.992188 -7.296875 9.117188 -9.484375 6.5 -9.484375 C 5.171875 -9.484375 4 -8.777344 3.335938 -7.664062 L 3.335938 -9.214844 L 1.273438 -9.214844 L 1.273438 3.148438 Z M 6.132812 -1.722656 C 4.660156 -1.722656 3.414062 -2.921875 3.414062 -4.609375 C 3.414062 -6.222656 4.625 -7.484375 6.121094 -7.484375 C 7.621094 -7.484375 8.839844 -6.339844 8.839844 -4.609375 C 8.839844 -2.824219 7.59375 -1.722656 6.132812 -1.722656 Z M 6.132812 -1.722656 "/></g></g></g><g fill="#000000" fill-opacity="1"><g transform="translate(200.837669, 236.640659)"><g><path d="M 3.441406 3.148438 L 3.441406 -0.421875 L 3.398438 -1.488281 C 4.007812 -0.421875 5.183594 0.277344 6.527344 0.277344 C 9.097656 0.277344 10.992188 -1.902344 10.992188 -4.609375 C 10.992188 -7.296875 9.117188 -9.484375 6.5 -9.484375 C 5.171875 -9.484375 4 -8.777344 3.335938 -7.664062 L 3.335938 -9.214844 L 1.273438 -9.214844 L 1.273438 3.148438 Z M 6.132812 -1.722656 C 4.660156 -1.722656 3.414062 -2.921875 3.414062 -4.609375 C 3.414062 -6.222656 4.625 -7.484375 6.121094 -7.484375 C 7.621094 -7.484375 8.839844 -6.339844 8.839844 -4.609375 C 8.839844 -2.824219 7.59375 -1.722656 6.132812 -1.722656 Z M 6.132812 -1.722656 "/></g></g></g><g fill="#000000" fill-opacity="1"><g transform="translate(214.627479, 236.640659)"><g><path d="M 5.460938 0.277344 C 8.300781 0.277344 10.335938 -1.890625 10.335938 -4.609375 C 10.335938 -7.304688 8.300781 -9.492188 5.46875 -9.492188 C 2.644531 -9.492188 0.617188 -7.296875 0.617188 -4.609375 C 0.617188 -1.902344 2.652344 0.277344 5.460938 0.277344 Z M 5.476562 -1.738281 C 3.925781 -1.738281 2.769531 -2.941406 2.769531 -4.609375 C 2.769531 -6.265625 3.925781 -7.484375 5.476562 -7.484375 C 7.027344 -7.484375 8.183594 -6.265625 8.183594 -4.609375 C 8.183594 -2.941406 7.027344 -1.738281 5.476562 -1.738281 Z M 5.476562 -1.738281 "/></g></g></g><g fill="#000000" fill-opacity="1"><g transform="translate(227.763155, 236.640659)"><g><path d="M 3.441406 0 L 3.441406 -4.285156 C 3.441406 -6.25 4.457031 -7.351562 5.945312 -7.351562 L 6.8125 -7.351562 L 6.8125 -9.214844 L 5.828125 -9.214844 C 4.625 -9.214844 3.78125 -8.5625 3.351562 -7.546875 L 3.351562 -9.214844 L 1.273438 -9.214844 L 1.273438 0 Z M 3.441406 0 "/></g></g></g><g fill="#000000" fill-opacity="1"><g transform="translate(237.036759, 236.640659)"><g><path d="M 6.9375 0 L 6.9375 -1.800781 L 5.511719 -1.800781 C 4.824219 -1.800781 4.175781 -2.117188 4.175781 -3.40625 L 4.175781 -7.351562 L 6.9375 -7.351562 L 6.9375 -9.214844 L 4.175781 -9.214844 L 4.175781 -11.933594 L 2.007812 -11.914062 L 2.007812 -9.214844 L 0.0976562 -9.214844 L 0.0976562 -7.351562 L 2.007812 -7.351562 L 2.007812 -3.503906 C 2.007812 -0.464844 3.675781 0 5.066406 0 Z M 6.9375 0 "/></g></g></g><g fill="#000000" fill-opacity="1"><g transform="translate(246.641911, 236.640659)"><g><path d="M 5.414062 0.277344 C 7.851562 0.277344 9.734375 -1.011719 9.734375 -4.292969 L 9.734375 -9.214844 L 7.574219 -9.214844 L 7.574219 -4.355469 C 7.574219 -2.671875 6.859375 -1.738281 5.40625 -1.738281 C 3.960938 -1.738281 3.226562 -2.652344 3.226562 -4.355469 L 3.226562 -9.214844 L 1.074219 -9.214844 L 1.074219 -4.292969 C 1.074219 -1.011719 2.949219 0.277344 5.414062 0.277344 Z M 5.414062 0.277344 "/></g></g></g><g fill="#000000" fill-opacity="1"><g transform="translate(259.634216, 236.640659)"><g><path d="M 3.441406 0 L 3.441406 -4.707031 C 3.441406 -6.507812 4.609375 -7.496094 5.882812 -7.496094 C 7.191406 -7.496094 8.015625 -6.75 8.015625 -4.921875 L 8.015625 0 L 10.183594 0 L 10.183594 -4.964844 C 10.183594 -7.863281 8.957031 -9.492188 6.480469 -9.492188 C 5.066406 -9.492188 3.863281 -8.785156 3.335938 -7.78125 L 3.335938 -9.214844 L 1.273438 -9.214844 L 1.273438 0 Z M 3.441406 0 "/></g></g></g><g fill="#000000" fill-opacity="1"><g transform="translate(273.199996, 236.640659)"><g><path d="M 2.339844 -10.648438 C 3.21875 -10.648438 3.710938 -11.195312 3.710938 -11.894531 C 3.710938 -12.570312 3.21875 -13.132812 2.347656 -13.132812 C 1.496094 -13.132812 1.003906 -12.570312 1.003906 -11.894531 C 1.003906 -11.207031 1.507812 -10.648438 2.339844 -10.648438 Z M 3.441406 0 L 3.441406 -9.214844 L 1.273438 -9.214844 L 1.273438 0 Z M 3.441406 0 "/></g></g></g><g fill="#000000" fill-opacity="1"><g transform="translate(280.090048, 236.640659)"><g><path d="M 6.9375 0 L 6.9375 -1.800781 L 5.511719 -1.800781 C 4.824219 -1.800781 4.175781 -2.117188 4.175781 -3.40625 L 4.175781 -7.351562 L 6.9375 -7.351562 L 6.9375 -9.214844 L 4.175781 -9.214844 L 4.175781 -11.933594 L 2.007812 -11.914062 L 2.007812 -9.214844 L 0.0976562 -9.214844 L 0.0976562 -7.351562 L 2.007812 -7.351562 L 2.007812 -3.503906 C 2.007812 -0.464844 3.675781 0 5.066406 0 Z M 6.9375 0 "/></g></g></g><g fill="#000000" fill-opacity="1"><g transform="translate(289.695188, 236.640659)"><g><path d="M 2.339844 -10.648438 C 3.21875 -10.648438 3.710938 -11.195312 3.710938 -11.894531 C 3.710938 -12.570312 3.21875 -13.132812 2.347656 -13.132812 C 1.496094 -13.132812 1.003906 -12.570312 1.003906 -11.894531 C 1.003906 -11.207031 1.507812 -10.648438 2.339844 -10.648438 Z M 3.441406 0 L 3.441406 -9.214844 L 1.273438 -9.214844 L 1.273438 0 Z M 3.441406 0 "/></g></g></g><g fill="#000000" fill-opacity="1"><g transform="translate(296.58524, 236.640659)"><g><path d="M 10.039062 -4.769531 C 10.039062 -7.304688 8.175781 -9.492188 5.398438 -9.492188 C 2.625 -9.492188 0.617188 -7.296875 0.617188 -4.609375 C 0.617188 -1.917969 2.625 0.277344 5.398438 0.277344 C 7.691406 0.277344 9.332031 -1.238281 9.796875 -2.894531 L 7.433594 -2.894531 C 7.117188 -2.117188 6.445312 -1.660156 5.351562 -1.660156 C 4.078125 -1.660156 3.019531 -2.527344 2.796875 -4.035156 L 9.996094 -4.035156 C 10.03125 -4.375 10.039062 -4.535156 10.039062 -4.769531 Z M 2.886719 -5.710938 C 3.253906 -7.011719 4.292969 -7.601562 5.386719 -7.601562 C 6.660156 -7.601562 7.738281 -6.742188 7.828125 -5.710938 Z M 2.886719 -5.710938 "/></g></g></g><g fill="#000000" fill-opacity="1"><g transform="translate(309.299763, 236.640659)"><g><path d="M 4.589844 0.277344 C 6.8125 0.277344 8.460938 -0.707031 8.460938 -2.734375 C 8.460938 -4.6875 6.976562 -5.246094 5.066406 -5.53125 C 3.476562 -5.78125 3.136719 -6.007812 3.136719 -6.695312 C 3.136719 -7.253906 3.550781 -7.71875 4.480469 -7.71875 C 5.488281 -7.71875 6.023438 -7.234375 6.070312 -6.554688 L 8.195312 -6.535156 C 8.195312 -8.292969 6.695312 -9.492188 4.472656 -9.492188 C 2.222656 -9.492188 1.003906 -8.347656 1.003906 -6.652344 C 1.003906 -4.742188 2.527344 -4.035156 4.304688 -3.800781 C 5.558594 -3.613281 6.25 -3.390625 6.25 -2.609375 C 6.25 -1.910156 5.730469 -1.441406 4.609375 -1.441406 C 3.371094 -1.441406 2.742188 -2.078125 2.707031 -2.921875 L 0.628906 -2.929688 C 0.628906 -1.308594 1.882812 0.277344 4.589844 0.277344 Z M 4.589844 0.277344 "/></g></g></g></svg>